HIERARCHY
ROOT Hips
{
	OFFSET 56.877701 -32.693596 43.373703
	CHANNELS 6 Xposition Yposition Zposition Zrotation Xrotation Yrotation
	JOINT Chest
	{
		OFFSET -0.779999 1.005800 5.403099
		CHANNELS 6 Xposition Yposition Zposition Zrotation Xrotation Yrotation
		JOINT Chest2
		{
			OFFSET 0.000000 0.000000 4.236801
			CHANNELS 6 Xposition Yposition Zposition Zrotation Xrotation Yrotation
			JOINT Neck
			{
				OFFSET 0.000000 0.000000 9.874401
				CHANNELS 6 Xposition Yposition Zposition Zrotation Xrotation Yrotation
				JOINT Head
				{
					OFFSET 0.000000 0.000002 2.173893
					CHANNELS 6 Xposition Yposition Zposition Zrotation Xrotation Yrotation
					End Site
					{
						OFFSET 0.000000 0.000000 6.508102
					}
				}
			}
			JOINT LeftCollar
			{
				OFFSET 2.681599 -0.377600 5.432499
				CHANNELS 6 Xposition Yposition Zposition Zrotation Xrotation Yrotation
				JOINT LeftShoulder
				{
					OFFSET 5.161499 0.000000 0.000000
					CHANNELS 6 Xposition Yposition Zposition Zrotation Xrotation Yrotation
					JOINT LeftElbow
					{
						OFFSET 0.000000 0.000000 -10.869099
						CHANNELS 6 Xposition Yposition Zposition Zrotation Xrotation Yrotation
						JOINT LeftWrist
						{
							OFFSET 0.000000 0.000000 -13.344799
							CHANNELS 6 Xposition Yposition Zposition Zrotation Xrotation Yrotation
							End Site
							{
								OFFSET 0.000000 0.000000 -2.173901
							}
						}
					}
				}
			}
			JOINT RightCollar
			{
				OFFSET -2.381901 -1.419600 6.136600
				CHANNELS 6 Xposition Yposition Zposition Zrotation Xrotation Yrotation
				JOINT RightShoulder
				{
					OFFSET -4.550499 0.000000 0.000000
					CHANNELS 6 Xposition Yposition Zposition Zrotation Xrotation Yrotation
					JOINT RightElbow
					{
						OFFSET 0.000000 0.000000 -11.106499
						CHANNELS 6 Xposition Yposition Zposition Zrotation Xrotation Yrotation
						JOINT RightWrist
						{
							OFFSET 0.000000 0.000000 -12.874298
							CHANNELS 6 Xposition Yposition Zposition Zrotation Xrotation Yrotation
							End Site
							{
								OFFSET 0.000000 0.000000 -2.173901
							}
						}
					}
				}
			}
		}
	}
	JOINT LeftHip
	{
		OFFSET 2.431900 0.469601 -2.489399
		CHANNELS 6 Xposition Yposition Zposition Zrotation Xrotation Yrotation
		JOINT LeftKnee
		{
			OFFSET 0.000000 -0.000004 -18.200201
			CHANNELS 6 Xposition Yposition Zposition Zrotation Xrotation Yrotation
			JOINT LeftAnkle
			{
				OFFSET 0.000000 0.000000 -16.279900
				CHANNELS 6 Xposition Yposition Zposition Zrotation Xrotation Yrotation
				End Site
				{
					OFFSET 0.000000 -8.394100 0.000000
				}
			}
		}
	}
	JOINT RightHip
	{
		OFFSET -1.987999 -0.073502 -2.713001
		CHANNELS 6 Xposition Yposition Zposition Zrotation Xrotation Yrotation
		JOINT RightKnee
		{
			OFFSET 0.000000 -0.000004 -19.547802
			CHANNELS 6 Xposition Yposition Zposition Zrotation Xrotation Yrotation
			JOINT RightAnkle
			{
				OFFSET 0.000000 0.000000 -14.881199
				CHANNELS 6 Xposition Yposition Zposition Zrotation Xrotation Yrotation
				End Site
				{
					OFFSET 0.000000 -7.922699 0.000000
				}
			}
		}
	}
}
MOTION
Frames: 10
Frame Time: 0.041667
51.894897 -35.367191 42.651299 4987.806731 -1.221831 2.882219 -0.780008 1.005794 5.403093 52.213962 -1.627594 11.732041 0.000004 -0.000004 4.236800 -30.078630 0.966319 -2.494578 0.000004 0.000013 9.874400 53.255077 2.253916 -19.530680 0.000005 -0.000001 2.173894 2.586800 0.182430 5.284563 2.681601 -0.377589 5.432508 4.887423 0.874772 -12.162610 5.161501 0.000003 -0.000006 -242.446444 -120.594694 -342.515709 0.000003 -0.000004 -10.869102 72.849411 -34.792809 91.053074 -0.000005 0.000000 -13.344806 9.190825 -22.753259 35.877184 -2.381895 -1.419593 6.136596 15.164893 5.256474 17.200858 -4.550500 -0.000005 -0.000007 -1250.369181 -536.492125 -444.169087 0.000000 -0.000005 -11.106504 726.681694 -19.497970 716.437120 -0.000009 -0.000001 -12.874295 -281.602798 2.520290 73.891029 2.431894 0.469600 -2.489396 9.663676 -2.769993 -10.901742 -0.000003 -0.000000 -18.200207 -147.266419 22.361240 128.913906 0.000004 0.000008 -16.279894 54.523249 22.858046 44.078182 -1.988006 -0.073504 -2.713005 9.562793 9.728937 -7.198789 0.000007 -0.000003 -19.547796 -1843.167092 15.553809 -11.696524 0.000000 0.000002 -14.881198 2167.377703 27.109880 -331.162842
51.896801 -35.351593 42.653503 4987.693951 -1.145900 2.991457 -0.779996 1.005807 5.403096 52.317299 -1.746002 11.690891 0.000008 -0.000001 4.236799 -30.150333 0.987601 -2.491149 0.000000 0.000010 9.874397 53.334410 2.277139 -19.517568 0.000003 -0.000000 2.173893 2.560397 0.264978 5.508279 2.681598 -0.377597 5.432499 4.958537 0.866287 -12.221890 5.161497 0.000000 -0.000004 -242.261947 -120.491613 -342.304793 0.000004 -0.000002 -10.869101 72.916156 -35.106564 91.086979 -0.000003 0.000008 -13.344794 9.465490 -22.657418 35.894843 -2.381896 -1.419595 6.136591 15.277200 5.242918 17.321583 -4.550498 -0.000005 0.000014 -1250.436718 -536.426774 -444.293014 -0.000001 -0.000006 -11.106508 727.046644 -19.541405 716.548425 -0.000006 0.000000 -12.874294 -281.843549 2.534482 73.817679 2.431908 0.469600 -2.489396 9.789941 -2.887710 -11.028914 0.000001 0.000002 -18.200203 -147.308903 22.321960 128.908564 -0.000001 0.000001 -16.279900 54.553079 22.860455 43.945902 -1.987993 -0.073502 -2.712998 9.612707 9.680472 -7.274788 0.000000 -0.000003 -19.547798 -1843.166436 15.483170 -11.825288 -0.000009 -0.000001 -14.881198 2167.408302 27.114070 -331.082027
51.899399 -35.336197 42.656506 4987.611770 -1.111586 3.094845 -0.780005 1.005800 5.403087 52.375905 -1.773400 11.609298 0.000010 -0.000003 4.236798 -30.239286 0.969087 -2.511219 0.000010 0.000010 9.874394 53.470074 2.275563 -19.510220 0.000006 0.000005 2.173887 2.525771 0.388158 5.686120 2.681598 -0.377593 5.432497 5.078762 0.791470 -12.322991 5.161506 0.000003 0.000002 -242.052287 -120.371702 -342.023662 -0.000006 0.000002 -10.869099 72.973919 -35.362259 91.106336 -0.000008 0.000005 -13.344816 9.737037 -22.611836 35.915211 -2.381895 -1.419595 6.136592 15.359053 5.163470 17.476127 -4.550502 -0.000002 -0.000012 -1250.435735 -536.393989 -444.435191 0.000011 -0.000002 -11.106506 727.321327 -19.559217 716.623776 -0.000003 0.000001 -12.874298 -282.062279 2.582788 73.722057 2.431895 0.469603 -2.489405 9.857742 -2.945912 -11.163721 0.000006 0.000002 -18.200199 -147.312618 22.289841 128.897090 0.000001 0.000005 -16.279900 54.666382 22.967764 43.791700 -1.988002 -0.073503 -2.713004 9.630685 9.649691 -7.367878 0.000000 -0.000004 -19.547802 -1843.219766 15.437679 -11.870968 -0.000002 0.000002 -14.881195 2167.513214 27.145637 -331.061373
51.902699 -35.322300 42.659008 4987.546637 -1.080337 3.157761 -0.780008 1.005807 5.403097 52.439071 -1.845418 11.554255 0.000010 -0.000006 4.236802 -30.341917 1.024975 -2.489498 0.000012 0.000000 9.874404 53.626431 2.257480 -19.500352 0.000004 0.000003 2.173892 2.525310 0.475556 5.760618 2.681609 -0.377601 5.432499 5.213969 0.679350 -12.447467 5.161504 0.000004 0.000005 -242.109442 -120.219403 -341.982162 0.000004 0.000002 -10.869090 72.955341 -35.206716 91.018677 -0.000001 0.000007 -13.344813 10.020910 -22.793885 36.222156 -2.381895 -1.419595 6.136588 15.417532 5.063749 17.641299 -4.550499 -0.000004 0.000000 -1250.388306 -536.371204 -444.579445 -0.000007 -0.000002 -11.106504 727.440500 -19.553481 716.650605 -0.000008 0.000003 -12.874286 -282.146181 2.645187 73.689586 2.431899 0.469603 -2.489400 9.873217 -2.975499 -11.261252 -0.000001 -0.000008 -18.200199 -147.270886 22.267154 128.878771 -0.000000 0.000002 -16.279892 54.743027 23.021434 43.646196 -1.988000 -0.073501 -2.713006 9.717287 9.633288 -7.442604 -0.000005 -0.000002 -19.547802 -1843.296483 15.364577 -11.926020 -0.000004 -0.000003 -14.881196 2167.575723 27.181153 -331.064105
51.907700 -35.308994 42.661205 4987.491995 -1.033500 3.182522 -0.780006 1.005797 5.403102 52.492005 -1.896332 11.530497 0.000003 -0.000004 4.236794 -30.429702 1.082086 -2.466023 0.000005 0.000000 9.874402 53.772222 2.248966 -19.466032 0.000008 0.000001 2.173892 2.792225 0.599989 5.568514 2.681604 -0.377602 5.432503 5.329877 0.568522 -12.544885 5.161510 0.000000 0.000008 -242.315741 -120.075409 -342.089205 0.000010 0.000002 -10.869118 72.901799 -34.902502 90.872286 -0.000001 0.000005 -13.344810 10.306138 -22.988185 36.665658 -2.381894 -1.419599 6.136600 15.446440 4.943974 17.830581 -4.550510 -0.000001 0.000002 -1250.314540 -536.353719 -444.735255 -0.000010 -0.000008 -11.106503 727.452139 -19.538622 716.640988 -0.000000 -0.000002 -12.874305 -282.108287 2.718103 73.747950 2.431900 0.469596 -2.489389 9.849328 -3.003632 -11.316098 0.000000 0.000000 -18.200205 -147.200139 22.248747 128.859264 -0.000001 0.000001 -16.279898 54.831106 23.098508 43.521166 -1.988000 -0.073505 -2.712989 9.793289 9.599601 -7.482140 0.000001 -0.000005 -19.547798 -1843.345223 15.294289 -11.966808 0.000000 0.000004 -14.881198 2167.602389 27.210275 -331.059597
51.917904 -35.293793 42.663403 4987.348616 -0.872129 3.184453 -0.779992 1.005806 5.403095 52.603952 -1.899226 11.606669 -0.000005 -0.000003 4.236797 -30.496962 1.044286 -2.498579 -0.000006 0.000000 9.874388 53.897316 2.262265 -19.397116 0.000009 0.000005 2.173894 3.031271 0.695389 5.368122 2.681597 -0.377600 5.432489 5.423724 0.473808 -12.594163 5.161496 0.000004 0.000003 -242.671840 -119.946386 -342.353123 0.000002 -0.000002 -10.869102 72.845436 -34.586408 90.703560 -0.000003 0.000008 -13.344805 10.862889 -23.190659 37.473198 -2.381900 -1.419599 6.136583 15.466147 4.830591 18.056278 -4.550507 -0.000005 0.000002 -1250.242413 -536.352516 -444.911720 -0.000001 0.000001 -11.106504 727.251113 -19.507140 716.573615 -0.000000 -0.000003 -12.874294 -281.851581 2.794973 73.892415 2.431909 0.469605 -2.489403 9.896385 -3.152187 -11.331191 0.000008 -0.000015 -18.200211 -147.126783 22.218185 128.843104 -0.000000 0.000000 -16.279903 54.911408 23.169552 43.465398 -1.987991 -0.073498 -2.712995 9.927301 9.430265 -7.480158 0.000000 -0.000002 -19.547802 -1843.365112 15.242820 -11.976534 -0.000007 0.000005 -14.881197 2167.618781 27.238965 -331.063149
51.926304 -35.279396 42.665298 4987.271244 -0.214555 3.194425 -0.780002 1.005808 5.403097 52.652217 -2.266534 12.066116 0.000005 -0.000002 4.236806 -30.554015 1.061689 -2.497793 0.000000 -0.000006 9.874407 53.995944 2.287264 -19.290058 0.000017 -0.000002 2.173893 3.257439 0.776899 5.111152 2.681591 -0.377604 5.432504 5.499641 0.397703 -12.603203 5.161505 0.000003 0.000002 -243.133807 -119.841639 -342.720506 -0.000001 0.000000 -10.869102 72.792331 -34.384501 90.572420 -0.000004 -0.000001 -13.344805 10.948615 -23.257382 38.035616 -2.381904 -1.419600 6.136594 15.476596 4.717247 18.312360 -4.550508 -0.000002 -0.000008 -1250.168756 -536.360986 -445.105998 0.000011 -0.000009 -11.106499 726.889277 -19.464181 716.451436 0.000001 -0.000011 -12.874295 -281.486029 2.868393 73.968797 2.431901 0.469602 -2.489392 9.846872 -3.777305 -11.272074 0.000005 0.000000 -18.200201 -147.055134 22.185598 128.816220 -0.000004 0.000002 -16.279898 55.240664 23.303267 43.416360 -1.987998 -0.073498 -2.712991 9.936319 8.769229 -7.405803 0.000004 -0.000008 -19.547800 -1843.348720 15.196848 -11.955391 -0.000008 -0.000005 -14.881200 2167.620748 27.267427 -331.077875
51.934002 -35.265202 42.667305 4987.228842 -0.212229 3.159852 -0.780004 1.005816 5.403095 52.690617 -2.222122 12.040115 -0.000001 -0.000003 4.236795 -30.589163 1.083278 -2.493889 0.000009 0.000004 9.874385 54.029638 2.331542 -19.150343 0.000002 -0.000000 2.173892 3.471684 0.785479 4.841364 2.681606 -0.377594 5.432494 5.545384 0.360641 -12.561315 5.161500 -0.000005 0.000000 -243.659977 -119.773296 -343.171981 0.000004 -0.000005 -10.869093 72.772845 -34.280330 90.505846 0.000000 0.000003 -13.344792 11.607402 -23.010716 38.503689 -2.381894 -1.419596 6.136589 15.494270 4.645172 18.594466 -4.550508 -0.000004 -0.000006 -1249.998056 -536.287438 -445.179545 0.000004 -0.000003 -11.106504 726.014521 -19.191254 715.985672 -0.000011 0.000003 -12.874299 -280.530868 3.181406 74.380084 2.431899 0.469607 -2.489402 9.835220 -3.766919 -11.268492 0.000006 -0.000006 -18.200195 -147.048536 22.141653 128.797014 -0.000005 -0.000010 -16.279896 55.321592 23.253773 43.485216 -1.988000 -0.073494 -2.712996 10.016779 8.753354 -7.401439 0.000000 -0.000002 -19.547806 -1843.321181 15.133507 -11.995743 -0.000002 0.000005 -14.881199 2167.523268 27.280732 -331.024517
51.939796 -35.250698 42.670197 4987.200866 -0.210985 3.142264 -0.779998 1.005796 5.403097 52.714959 -2.195153 12.000460 0.000005 0.000002 4.236796 -30.603588 1.099560 -2.487842 0.000002 0.000004 9.874392 54.026018 2.386737 -18.994751 0.000004 -0.000002 2.173892 3.665452 0.800000 4.607824 2.681598 -0.377597 5.432499 5.576682 0.353352 -12.473928 5.161515 0.000002 0.000005 -243.702133 -119.793158 -343.118378 0.000005 -0.000001 -10.869094 72.946612 -34.826967 90.556123 0.000000 0.000003 -13.344799 11.821237 -23.036423 38.225072 -2.381899 -1.419596 6.136589 15.511151 4.587880 18.873952 -4.550503 -0.000002 0.000002 -1250.022099 -536.268041 -445.357021 -0.000018 -0.000007 -11.106501 725.687109 -19.165207 715.891361 -0.000006 -0.000002 -12.874302 -280.111713 3.361862 74.641065 2.431906 0.469598 -2.489400 9.843503 -3.768620 -11.273227 0.000004 -0.000004 -18.200207 -147.093246 22.091757 128.777438 -0.000006 -0.000004 -16.279892 55.421613 23.273774 43.608227 -1.987996 -0.073500 -2.712997 10.065346 8.772442 -7.410710 0.000003 -0.000001 -19.547802 -1843.281620 15.051104 -12.062406 -0.000005 -0.000008 -14.881195 2167.430814 27.297655 -330.951953
51.942997 -35.236797 42.673504 4987.181195 -0.211583 3.150737 -0.780002 1.005808 5.403102 52.733008 -2.196766 11.948487 -0.000000 -0.000003 4.236797 -30.616535 1.115249 -2.481320 0.000007 0.000006 9.874395 54.014714 2.431202 -18.848896 0.000012 -0.000003 2.173895 3.594730 0.747500 4.574906 2.681598 -0.377596 5.432498 5.605660 0.365015 -12.386207 5.161505 0.000005 0.000009 -243.651808 -119.796423 -342.984943 0.000002 0.000001 -10.869095 73.116601 -34.647432 90.632335 0.000000 0.000003 -13.344796 11.206051 -23.105569 37.850016 -2.381895 -1.419595 6.136597 15.544578 4.563031 19.146685 -4.550502 -0.000005 -0.000007 -1250.058053 -536.264871 -445.513760 0.000006 -0.000003 -11.106498 725.262052 -19.154996 715.737709 -0.000003 -0.000004 -12.874299 -279.619093 3.343490 74.748545 2.431898 0.469604 -2.489397 9.867861 -3.775578 -11.298381 -0.000004 0.000001 -18.200203 -147.175605 22.040465 128.754270 -0.000003 0.000001 -16.279896 55.474694 23.238213 43.777831 -1.988001 -0.073497 -2.712991 10.087839 8.789275 -7.441480 0.000001 -0.000001 -19.547802 -1843.242715 14.980217 -12.120406 -0.000007 0.000006 -14.881197 2167.357595 27.322155 -330.890208
